<?xml version="1.0" encoding="UTF-8"?>
<svg width="100px" height="100px" viewBox="0 0 100 100" version="1.1" xmlns="http://www.w3.org/2000/svg" xmlns:xlink="http://www.w3.org/1999/xlink">
    <!-- Generator: Sketch 53.1 (72631) - https://sketchapp.com -->
    <title>Artboard</title>
    <desc>Created with Sketch.</desc>
    <g id="Artboard" stroke="none" stroke-width="1" fill="none" fill-rule="evenodd">
        <g id="phalcon-seeklogo.com" transform="translate(8.000000, 2.000000)" fill-rule="nonzero">
            <polygon id="Path" fill="#73B08F" points="67 46 61 34 62.9130448 42.0287769"></polygon>
            <polygon id="Path" fill="#C5E4D3" points="60.4935339 30.0240986 65 49 50.5086192 33.7349424 29.3900858 14.0843384 24 0"></polygon>
            <polygon id="Path" fill="#76C39B" points="51 35 31.8328097 25.75641 21.3690918 14.4487184 20 7"></polygon>
            <polygon id="Path" fill="#000000" points="66 50 48.0314125 45.4144885 13.4764428 25.5150913 0 7 51.8324592 34.5130798"></polygon>
            <polygon id="Path" fill="#73B08F" points="47 45.1984087 47 45.7222161 44.7161658 50 32.789477 46.0714235 10.6278174 29.3968239 2 17 11.8966141 22.9365073 13.4191748 25.2936497"></polygon>
            <polygon id="Path" stroke="#000000" stroke-width="1.12244904" fill="#000000" points="14.6107423 32.3867401 12.9194652 32.1878449 7 30 19.1208035 41.23757 22.3154359 43.7237575 35 48"></polygon>
            <polygon id="Path" fill="#76C39B" points="63 49.4210515 63 49.4210515 62.7477867 59 61.8230112 57.4342161 56.4424761 57.0657908 44 49.97368 46.8584084 45"></polygon>
            <polygon id="Path" fill="#C5E4D3" points="13 39 28.4941613 50.6307682 44.5875478 55.8923112 57 57 44.6731507 49.984614"></polygon>
            <polygon id="Path" fill="#76C39B" points="20 48 30.6281613 53.779071 43 55 28.0541541 50.4418628 25.6462108 48.9767425"></polygon>
            <polygon id="Path" fill="#73B08F" points="44 55.4285749 26 54 35.2727281 57.2380955 41.3636364 58"></polygon>
            <polygon id="Path" fill="#76C39B" points="40 57.9523801 38.4117646 58.1428561 31 59 34.6176467 57"></polygon>
            <polygon id="Path" fill="#76C39B" points="51 59.5254268 50.6574601 60.1423725 25.0524875 75.213561 20 82 21.7983424 74.6847456 27.364642 66.9288113 43.2928176 56"></polygon>
            <polygon id="Path" fill="#000000" points="23 67 18 73 18 70.3802826"></polygon>
            <polygon id="Path" fill="#C5E4D3" points="61 60.3546874 43.4786314 72.1235665 42.0256399 69.6681923 35.9572624 82.3684181 37.3247846 84.2311209 38.3504264 96 31 82.5377582 36.9829065 67.9748247 51.5982874 59"></polygon>
            <polygon id="Path" fill="#000000" points="37 68 25.340428 74.1469641 25 82.6198063 28.5744685 94 28.5744685 88.1853022"></polygon>
            <polygon id="Path" fill="#73B08F" points="22.3333357 84 22.5000012 84.5903647 24 91 22 89.7349406"></polygon>
            <polygon id="Path" fill="#73B08F" points="43.7876111 70.9324329 42.2831866 69 36 81.3851353 46 95 43.5221249 88.939184"></polygon>
            <polygon id="Path" fill="#76C39B" points="45.3837214 70 44.0813952 70.7179467 44 85.6153888 46.4418612 91 51 89.2051311 50.8372101 85.6153888 45.8720935 80.4999998"></polygon>
            <polygon id="Path" fill="#000000" points="68 60 60.1566254 62.0892868 51.6385563 69 47 68.8392865 60.4096384 60.2410724"></polygon>
            <polygon id="Path" fill="#73B08F" points="65 61 62.5000012 56.6615391 40 55 50.0892852 58.9692307"></polygon>
            <polygon id="Path" fill="#73B08F" points="51.9520001 69.6416714 53.0960006 72.2999986 55.5600003 74.0416698 56 74.0416698 55.8240009 76.8833356 48.2560031 80 45.7040004 74.224999 45 70.8333307 47.2880013 69"></polygon>
            <polygon id="Path" fill="#000000" points="55.6103899 84 51.5584448 82 50 85.5652176 50.5454577 86.4347824 50.4675339 90.2608702 53.428572 94 52.9610423 86.9565232 53.6623388 86.6086942 56 89.1304349 54.9090934 86.2608702 52.4155846 84.782611 52.9610423 83.7391294 55.6103899 85.0434768"></polygon>
            <polygon id="Path" fill="#000000" points="56.7948704 69 55 73.1142882 55.3589772 76.628573 59.0384632 81 58.5897457 73.9714303 59.1282035 73.6285754 62 76.0285744 60.8333333 73.371432 57.6025648 71.7428589 58.141023 70.8857168 61.461537 72.2571461 61.3717914 71.0571441"></polygon>
            <polygon id="Path" fill="#C5E4D3" points="72.2499979 51.2750002 63 49 63 58.1000015 64.0833293 60.1125011 72.2499979 60.1999979 80 63 79.749999 61.8624997 75.000002 58.9750008 65.499999 55.0374988 70.9166679 54.9500016 65.6666648 52.4125005"></polygon>
            <polygon id="Path" fill="#73B08F" points="84 59.0833342 80.4672883 53.4166671 72.3925207 51 66 52.1666684 71.0467254 54.6666662 66.3364464 54.8333316 75.1682209 58.5833329 80.2149509 61"></polygon>
            <polygon id="Path" fill="#000000" points="79 65.9166648 80.454546 63.9166677 79.3636389 61.3333333 83.909089 59 84 63.7500018 81.2727298 66"></polygon>
            <polyline id="Path" stroke="#000000" stroke-width="0.30000001" fill="#000000" points="82 59 79.391304 58 78 59"></polyline>
        </g>
    </g>
</svg>